# Created by Kenney (www.kenney.nl)

mtllib sword.mtl

v 2 -2.5 -1
v 2.017037 -2.37059 -1
v 2 -2.5 1
v 2 -3 -1
v 2 -3 1
v 2.75 -2.066987 -1
v 2.75 -2.066987 1
v 2.62941 -2.017037 -1
v 2.62941 -2.017037 1
v 2.5 -2 -1
v 2.5 -2 1
v 2.37059 -2.017037 -1
v 2.37059 -2.017037 1
v 2.25 -2.066987 -1
v 2.25 -2.066987 1
v 2.146447 -2.146447 -1
v 2.146447 -2.146447 1
v 2.066987 -2.25 1
v 3 -2.5 -1
v 3 -3 -1
v 3 -2.5 1
v 3 -3 1
v 2.982963 -2.37059 -1
v 2.066987 -2.25 -1
v 2.933013 -2.25 -1
v 2.853553 -2.146447 -1
v 2.933013 -2.25 1
v 2.982963 -2.37059 1
v 2.853553 -2.146447 1
v 2.017037 -2.37059 1
v 2.258819 -3.965926 1
v 2.258819 -3.965926 -1
v 2 -4 1
v 2.5 -3.866025 1
v 2.5 -3.866025 -1
v 2.707107 -3.707107 1
v 2.707107 -3.707107 -1
v 2.866025 -3.5 1
v 2 -4 -1
v 2.965926 -3.258819 -1
v 2.866025 -3.5 -1
v 2.965926 -3.258819 1
v -3 -2.5 -1
v -2.982963 -2.37059 -1
v -3 -2.5 1
v -3 -3 -1
v -3 -3 1
v -2.25 -2.066987 -1
v -2.25 -2.066987 1
v -2.37059 -2.017037 -1
v -2.37059 -2.017037 1
v -2.5 -2 -1
v -2.5 -2 1
v -2.62941 -2.017037 -1
v -2.62941 -2.017037 1
v -2.75 -2.066987 -1
v -2.75 -2.066987 1
v -2.853553 -2.146447 -1
v -2.853553 -2.146447 1
v -2.933013 -2.25 1
v -2 -2.5 -1
v -2 -3 -1
v -2 -2.5 1
v -2 -3 1
v -2.017037 -2.37059 -1
v -2.933013 -2.25 -1
v -2.066987 -2.25 -1
v -2.146447 -2.146447 -1
v -2.066987 -2.25 1
v -2.017037 -2.37059 1
v -2.146447 -2.146447 1
v -2.982963 -2.37059 1
v -2.5 -3.866025 1
v -2.5 -3.866025 -1
v -2.707107 -3.707107 1
v -2.707107 -3.707107 -1
v -2.866025 -3.5 -1
v -2.965926 -3.258819 -1
v -2.866025 -3.5 1
v -2.965926 -3.258819 1
v -2 -4 1
v -2 -4 -1
v -2.258819 -3.965926 1
v -2.258819 -3.965926 -1
v 2 -3 -1.5
v 2 -4 -1.5
v 2 -3 1.5
v 2 -4 1.5
v -2 -3 -1.5
v -2 -3 1.5
v -2 -4 1.5
v -2 -4 -1.5
v 0 6 -0.5
v 0 7 -0.5
v 0 6 0.5
v 0 7 0.5
v 1 6 -0.5
v 1 6 0.5
v 1 -3 -0.5
v 1 -3 0.5
v 0 -3 0.5
v 0 -3 -0.5
v 0 -5 -0.5
v 0.5 -5 -0.5
v 0 -4 -0.5
v 0.5 -4 -0.5
v 0.5 -4 0.5
v 0 -4 0.5
v 0.5 -5 0.5
v 0 -5 0.5
v 0 -6 -0.5
v 0.5 -6 -0.5
v 0.5 -6 0.5
v 0 -6 0.5
v 0 -7 -1
v 0.5 -7 -1
v 0 -6 -1
v 1 -6.5 -1
v 1 -6 -1
v 0 -7 1
v 0 -6 1
v 0.5 -7 1
v 1 -6 1
v 1 -6.5 1
v -1 6 -0.5
v -1 6 0.5
v 0 4 -0.5
v 0 4 0.5
v -1 4 0.5
v -1 4 -0.5
v -0.5 -5 0.5
v -0.5 -5 -0.5
v -0.5 -4 -0.5
v -0.5 -4 0.5
v -0.5 -6 0.5
v -0.5 -6 -0.5
v -0.5 -7 1
v -0.5 -7 -1
v -1 -6.5 1
v -1 -6.5 -1
v -1 -6 -1
v -1 -6 1
v -1 -3 0.5
v -1 -3 -0.5

vn -0.9914449 0.1305262 0
vn -0.9659259 0.2588191 0
vn -1 0 0
vn 0.5 0.8660254 0
vn 0.2588191 0.9659259 0
vn 0 1 0
vn -0.2588191 0.9659259 0
vn -0.5 0.8660254 0
vn -0.7071068 0.7071068 0
vn -0.8660254 0.5 0
vn 1 0 0
vn 0 -1 0
vn 0 0 -1
vn 0.8660254 0.5 0
vn 0.9659259 0.2588191 0
vn 0.7071068 0.7071068 0
vn 0.9914449 0.1305262 0
vn 0 0 1
vn 0.2588191 -0.9659259 0
vn 0.1305262 -0.9914449 0
vn 0.5 -0.8660254 0
vn 0.7071068 -0.7071068 0
vn 0.8660254 -0.5 0
vn 0.9659259 -0.2588191 0
vn 0.9914449 -0.1305262 0
vn -0.5 -0.8660254 0
vn -0.7071068 -0.7071068 0
vn -0.8660254 -0.5 0
vn -0.9659259 -0.2588191 0
vn -0.9914449 -0.1305262 0
vn -0.1305262 -0.9914449 0
vn -0.2588191 -0.9659259 0
vn 0.7071068 0.7071068 0
vn -0.7071068 0.7071068 0

vt 0 0
vt NaN 0
vt NaN 0
vt NaN 0
vt NaN 0
vt NaN 0
vt NaN 0
vt NaN 0
vt NaN 0
vt NaN 0
vt 2.932832E-07 19.68504
vt 5.094863 19.01429
vt -5.094863 19.01429
vt NaN 0
vt -19.68504 -19.68504
vt -19.68504 3.901945E-11
vt 19.68504 -19.68504
vt 19.68504 9.881163E-11
vt -19.01429 5.094863
vt 19.01429 5.094863
vt -17.04774 9.84252
vt 17.04774 9.84252
vt -13.91942 13.91943
vt 13.91943 13.91943
vt -9.84252 17.04774
vt 9.84252 17.04774
vt NaN 0
vt NaN 0
vt NaN 0
vt NaN 0
vt NaN 0
vt NaN 0
vt NaN 0
vt 19.68504 19.68504
vt 18.34354 9.495314
vt -19.68504 19.68504
vt -9.495314 -18.34354
vt 1.970335E-11 -14.41045
vt 8.153811 -8.153811
vt 14.41045 1.481837E-11
vt NaN 0
vt NaN 0
vt NaN 0
vt NaN 0
vt NaN 0
vt NaN 0
vt NaN 0
vt NaN 0
vt NaN 0
vt NaN 0
vt NaN 0
vt NaN 0
vt NaN 0
vt NaN 0
vt NaN 0
vt NaN 0
vt -18.34354 9.495314
vt 9.495314 -18.34354
vt -4.074963E-12 -14.41045
vt -8.153811 -8.153811
vt -14.41045 3.101519E-12
vt 0 NaN
vt 0 NaN
vt 0 NaN
vt 0 NaN
vt 0 NaN
vt 0 NaN
vt NaN 0
vt NaN 0
vt NaN 0
vt 0 NaN
vt 0 NaN
vt 0 NaN
vt 0 NaN
vt NaN 0
vt NaN 0
vt NaN 0
vt NaN 0
vt -1.830003E-11 19.68504
vt 1.101341E-13 -19.68504
vt NaN 0
vt NaN 0
vt NaN 0
vt NaN 0
vt 19.68504 3.800135E-12
vt 1.67815E-12 -19.68504
vt 0 NaN
vt 0 NaN
vt 0 NaN
vt 0 NaN
vt 0 NaN
vt 0 NaN
vt -6.387779E-12 19.68504
vt 0 NaN
vt 0 NaN
vt 0 NaN
vt 0 NaN
vt 0 NaN
vt 2.285105E-11 -19.68504
vt 0 NaN
vt 0 NaN
vt 0 NaN
vt 0 NaN
vt NaN 0
vt -19.68504 -9.605015E-13
vt 7.008235E-12 -19.68504
vt 0 NaN
vt 0 NaN
vt 0 NaN

usemtl color8

f 3/1/1 2/2/2 1/1/1
f 5/1/3 1/3/3 4/1/3
f 1/3/3 5/1/3 3/1/3
f 8/1/5 7/4/4 6/1/4
f 10/1/6 9/5/5 8/1/5
f 12/1/7 11/6/6 10/1/6
f 14/1/8 13/7/7 12/1/7
f 16/1/9 15/8/8 14/1/8
f 16/1/9 18/9/10 17/1/9
f 15/8/8 16/1/9 17/1/9
f 13/7/7 14/1/8 15/8/8
f 11/6/6 12/1/7 13/7/7
f 9/5/5 10/1/6 11/6/6
f 7/4/4 8/1/5 9/5/5
f 21/1/11 20/10/11 19/1/11
f 20/10/11 21/1/11 22/1/11
f 5/13/12 20/12/12 22/11/12
f 20/13/12 5/12/12 4/11/12
f 1/13/13 20/12/13 4/11/13
f 20/13/13 1/12/13 19/11/13
f 19/13/13 1/12/13 2/11/13
f 19/13/13 2/12/13 23/11/13
f 23/13/13 2/12/13 24/11/13
f 23/13/13 24/12/13 25/11/13
f 25/13/13 24/12/13 16/11/13
f 25/13/13 16/12/13 26/11/13
f 26/13/13 16/12/13 14/11/13
f 26/13/13 14/12/13 6/11/13
f 6/13/13 14/12/13 12/11/13
f 6/13/13 12/12/13 8/11/13
f 8/13/13 12/12/13 10/11/13
f 27/13/14 23/12/15 25/11/14
f 23/13/15 27/12/14 28/11/15
f 29/13/16 25/12/14 26/11/16
f 25/13/14 29/12/16 27/11/14
f 28/13/15 19/12/17 23/11/15
f 19/13/17 28/12/15 21/11/17
f 6/13/4 29/12/16 26/11/16
f 29/13/16 6/12/4 7/4/4
f 30/1/2 24/14/10 2/2/2
f 2/2/2 3/1/1 30/1/2
f 24/14/10 30/1/2 18/9/10
f 18/9/10 16/1/9 24/14/10
f 22/17/18 3/16/18 5/15/18
f 3/16/18 22/17/18 21/18/18
f 3/16/18 21/18/18 30/19/18
f 30/19/18 21/18/18 28/20/18
f 30/19/18 28/20/18 18/21/18
f 18/21/18 28/20/18 27/22/18
f 18/21/18 27/22/18 17/23/18
f 17/23/18 27/22/18 29/24/18
f 17/23/18 29/24/18 15/25/18
f 15/25/18 29/24/18 7/26/18
f 15/25/18 7/26/18 13/13/18
f 13/13/18 7/26/18 9/12/18
f 13/13/18 9/12/18 11/11/18
f 33/1/20 32/27/19 31/1/19
f 31/1/19 35/28/21 34/1/21
f 34/1/21 37/29/22 36/1/22
f 37/29/22 38/30/23 36/1/22
f 37/29/22 34/1/21 35/28/21
f 35/28/21 31/1/19 32/27/19
f 32/27/19 33/1/20 39/1/20
f 42/1/24 41/31/23 40/1/24
f 33/1/3 4/1/3 39/1/3
f 4/1/3 33/1/3 5/1/3
f 4/1/6 22/32/6 20/1/6
f 22/32/6 4/1/6 5/1/6
f 4/1/13 32/33/13 39/1/13
f 32/33/13 4/11/13 35/1/13
f 35/1/13 4/11/13 37/1/13
f 37/1/13 4/11/13 41/1/13
f 41/1/13 4/11/13 40/1/13
f 40/1/13 4/11/13 20/1/13
f 22/36/25 40/35/24 20/34/25
f 40/36/24 22/35/25 42/34/24
f 41/31/23 42/1/24 38/30/23
f 38/30/23 37/29/22 41/31/23
f 31/37/18 5/36/18 33/15/18
f 5/36/18 31/37/18 34/38/18
f 5/36/18 34/38/18 36/39/18
f 5/36/18 36/39/18 38/40/18
f 5/36/18 38/40/18 42/35/18
f 5/36/18 42/35/18 22/34/18
f 45/1/1 44/41/2 43/1/1
f 47/1/3 43/42/3 46/1/3
f 43/42/3 47/1/3 45/1/3
f 50/1/5 49/43/4 48/1/4
f 52/1/6 51/44/5 50/1/5
f 54/1/7 53/45/6 52/1/6
f 56/1/8 55/46/7 54/1/7
f 58/1/9 57/47/8 56/1/8
f 58/1/9 60/48/10 59/1/9
f 57/47/8 58/1/9 59/1/9
f 55/46/7 56/1/8 57/47/8
f 53/45/6 54/1/7 55/46/7
f 51/44/5 52/1/6 53/45/6
f 49/43/4 50/1/5 51/44/5
f 63/1/11 62/49/11 61/1/11
f 62/49/11 63/1/11 64/1/11
f 47/13/12 62/12/12 64/11/12
f 62/13/12 47/12/12 46/11/12
f 43/13/13 62/12/13 46/11/13
f 62/13/13 43/12/13 61/11/13
f 61/13/13 43/12/13 44/11/13
f 61/13/13 44/12/13 65/11/13
f 65/13/13 44/12/13 66/11/13
f 65/13/13 66/12/13 67/11/13
f 67/13/13 66/12/13 58/11/13
f 67/13/13 58/12/13 68/11/13
f 68/13/13 58/12/13 56/11/13
f 68/13/13 56/12/13 48/11/13
f 48/13/13 56/12/13 54/11/13
f 48/13/13 54/12/13 50/11/13
f 50/13/13 54/12/13 52/11/13
f 69/13/14 65/12/15 67/11/14
f 65/13/15 69/12/14 70/11/15
f 71/13/16 67/12/14 68/11/16
f 67/13/14 71/12/16 69/11/14
f 70/13/15 61/12/17 65/11/15
f 61/13/17 70/12/15 63/11/17
f 48/13/4 71/12/16 68/11/16
f 71/13/16 48/12/4 49/43/4
f 72/1/2 66/50/10 44/41/2
f 44/41/2 45/1/1 72/1/2
f 66/50/10 72/1/2 60/48/10
f 60/48/10 58/1/9 66/50/10
f 64/17/18 45/16/18 47/15/18
f 45/16/18 64/17/18 63/18/18
f 45/16/18 63/18/18 72/19/18
f 72/19/18 63/18/18 70/20/18
f 72/19/18 70/20/18 60/21/18
f 60/21/18 70/20/18 69/22/18
f 60/21/18 69/22/18 59/23/18
f 59/23/18 69/22/18 71/24/18
f 59/23/18 71/24/18 57/25/18
f 57/25/18 71/24/18 49/26/18
f 57/25/18 49/26/18 55/13/18
f 55/13/18 49/26/18 51/12/18
f 55/13/18 51/12/18 53/11/18
f 75/1/27 74/51/26 73/1/26
f 74/51/26 75/1/27 76/1/27
f 79/1/28 78/52/29 77/1/28
f 46/1/30 80/53/29 47/1/30
f 83/1/32 82/54/31 81/1/31
f 82/54/31 83/1/32 84/1/32
f 46/1/6 64/55/6 62/1/6
f 64/55/6 46/1/6 47/1/6
f 64/1/11 82/56/11 62/49/11
f 82/56/11 64/1/11 81/1/11
f 84/1/13 62/12/13 82/1/13
f 62/1/13 84/1/13 74/1/13
f 62/1/13 74/1/13 76/1/13
f 62/1/13 76/1/13 77/1/13
f 62/1/13 77/1/13 78/1/13
f 62/1/13 78/1/13 46/1/13
f 73/57/26 84/34/32 83/36/32
f 84/57/32 73/34/26 74/51/26
f 75/57/27 77/34/28 76/36/27
f 77/57/28 75/34/27 79/36/28
f 78/52/29 79/1/28 80/53/29
f 80/53/29 46/1/30 78/52/29
f 64/34/18 83/58/18 81/17/18
f 83/58/18 64/34/18 73/59/18
f 73/59/18 64/34/18 75/60/18
f 75/60/18 64/34/18 79/61/18
f 79/61/18 64/34/18 80/57/18
f 80/57/18 64/34/18 47/36/18
f 87/15/11 86/34/11 85/36/11
f 86/15/11 87/34/11 88/36/11
f 89/15/6 87/34/6 85/36/6
f 87/15/6 89/34/6 90/36/6
f 91/1/12 86/1/12 88/62/12
f 86/1/12 91/1/12 92/63/12
f 91/1/3 89/1/3 92/64/3
f 89/1/3 91/1/3 90/65/3
f 89/1/13 86/1/13 92/66/13
f 86/1/13 89/1/13 85/67/13
f 87/34/18 91/15/18 88/17/18
f 91/15/18 87/34/18 90/36/18

usemtl color10

f 95/1/3 94/68/3 93/1/3
f 94/68/3 95/1/3 96/1/3
f 94/1/13 97/69/13 93/1/13
f 94/1/33 98/70/33 97/1/33
f 98/70/33 94/1/33 96/1/33
f 95/36/12 97/15/12 98/17/12
f 97/36/12 95/15/12 93/17/12
f 96/36/18 95/15/18 98/17/18
f 98/15/11 99/34/11 97/36/11
f 99/15/11 98/34/11 100/36/11
f 93/15/6 98/34/6 97/36/6
f 98/15/6 93/34/6 95/36/6
f 101/1/12 99/1/12 100/71/12
f 99/1/12 101/1/12 102/72/12
f 101/1/3 93/1/3 102/73/3
f 93/1/3 101/1/3 95/1/3
f 93/1/13 99/1/13 102/74/13
f 99/1/13 93/1/13 97/69/13
f 98/34/18 101/15/18 100/17/18
f 101/15/18 98/34/18 95/36/18

usemtl color2

f 105/1/13 104/75/13 103/1/13
f 104/75/13 105/1/13 106/1/13
f 105/1/6 107/76/6 106/1/6
f 107/76/6 105/1/6 108/1/6
f 110/1/12 104/77/12 109/1/12
f 104/77/12 110/1/12 103/1/12
f 110/1/3 105/78/3 103/1/3
f 105/78/3 110/1/3 108/1/3
f 107/36/11 104/80/11 106/79/11
f 104/36/11 107/80/11 109/79/11
f 109/80/18 108/36/18 110/15/18
f 108/36/18 109/80/18 107/79/18
f 103/1/13 112/81/13 111/1/13
f 112/81/13 103/1/13 104/75/13
f 103/1/6 109/82/6 104/1/6
f 109/82/6 103/1/6 110/1/6
f 114/1/12 112/83/12 113/1/12
f 112/83/12 114/1/12 111/1/12
f 114/1/3 103/1/3 111/1/3
f 103/1/3 114/1/3 110/1/3
f 109/36/11 112/80/11 104/79/11
f 112/36/11 109/80/11 113/79/11
f 113/80/18 110/36/18 114/15/18
f 110/36/18 113/80/18 109/79/18

usemtl color6

f 117/1/13 116/84/13 115/1/13
f 116/84/13 117/1/13 118/1/13
f 118/1/13 117/1/13 119/1/13
f 120/36/3 117/85/3 115/34/3
f 117/36/3 120/85/3 121/34/3
f 120/36/12 116/85/12 122/34/12
f 116/36/12 120/85/12 115/34/12
f 123/36/11 118/85/11 119/34/11
f 118/36/11 123/85/11 124/34/11
f 124/36/22 116/85/22 118/34/22
f 116/36/22 124/85/22 122/34/22
f 117/36/6 123/85/6 119/34/6
f 123/36/6 117/85/6 121/34/6
f 122/86/18 121/36/18 120/15/18
f 121/36/18 122/86/18 124/85/18
f 121/36/18 124/85/18 123/34/18

usemtl color13

f 94/34/13 93/15/13 125/17/13
f 96/34/11 93/15/11 94/17/11
f 93/34/11 96/15/11 95/17/11
f 126/34/34 94/15/34 125/17/34
f 94/34/34 126/15/34 96/17/34
f 126/1/12 93/1/12 95/36/12
f 93/1/12 126/1/12 125/87/12
f 96/34/18 126/15/18 95/17/18
f 95/15/11 127/34/11 93/36/11
f 127/15/11 95/34/11 128/36/11
f 125/15/6 95/34/6 93/36/6
f 95/15/6 125/34/6 126/36/6
f 129/1/12 127/1/12 128/88/12
f 127/1/12 129/1/12 130/89/12
f 129/1/3 125/1/3 130/90/3
f 125/1/3 129/1/3 126/91/3
f 125/1/13 127/1/13 130/92/13
f 127/1/13 125/1/13 93/1/13
f 95/34/18 129/15/18 128/17/18
f 129/15/18 95/34/18 126/36/18

usemtl color4

f 108/93/11 103/17/11 105/34/11
f 103/93/11 108/17/11 110/34/11
f 131/1/12 103/1/12 110/1/12
f 103/1/12 131/1/12 132/94/12
f 133/1/13 103/1/13 132/95/13
f 103/1/13 133/1/13 105/1/13
f 131/1/3 133/1/3 132/96/3
f 133/1/3 131/1/3 134/97/3
f 133/1/6 108/1/6 105/1/6
f 108/1/6 133/1/6 134/98/6
f 110/17/18 134/93/18 131/99/18
f 134/93/18 110/17/18 108/34/18
f 110/93/11 111/17/11 103/34/11
f 111/93/11 110/17/11 114/34/11
f 135/1/12 111/1/12 114/1/12
f 111/1/12 135/1/12 136/100/12
f 132/95/13 111/1/13 136/101/13
f 111/1/13 132/95/13 103/1/13
f 135/1/3 132/96/3 136/102/3
f 132/96/3 135/1/3 131/1/3
f 132/1/6 110/1/6 103/1/6
f 110/1/6 132/1/6 131/103/6
f 114/17/18 131/93/18 135/99/18
f 131/93/18 114/17/18 110/34/18

usemtl color7

f 139/1/27 138/104/27 137/1/27
f 138/104/27 139/1/27 140/1/27
f 138/1/13 117/1/13 115/1/13
f 117/1/13 138/1/13 140/1/13
f 117/1/13 140/1/13 141/1/13
f 141/1/6 121/34/6 117/1/6
f 121/1/6 141/1/6 142/1/6
f 137/105/12 115/34/12 120/36/12
f 115/105/12 137/34/12 138/36/12
f 140/105/3 142/34/3 141/36/3
f 142/105/3 140/34/3 139/36/3
f 121/105/11 115/34/11 117/36/11
f 115/105/11 121/34/11 120/36/11
f 121/34/18 137/106/18 120/17/18
f 137/106/18 121/34/18 139/105/18
f 139/105/18 121/34/18 142/36/18

usemtl color11

f 128/15/11 102/34/11 127/36/11
f 102/15/11 128/34/11 101/36/11
f 130/15/6 128/34/6 127/36/6
f 128/15/6 130/34/6 129/36/6
f 143/1/12 102/72/12 101/1/12
f 102/72/12 143/1/12 144/107/12
f 143/1/3 130/90/3 144/108/3
f 130/90/3 143/1/3 129/1/3
f 130/92/13 102/74/13 144/109/13
f 102/74/13 130/92/13 127/1/13
f 128/34/18 143/15/18 101/17/18
f 143/15/18 128/34/18 129/36/18

