# Created by Kenney (www.kenney.nl)

mtllib test.mtl

v 3.5 5 -4
v 3.5 5 4
v 3 5 -4
v 3 5 4
v 3.5 4 4
v 3.5 4 -4
v 3 4 4
v 3 4 -4
v 4 4.5 4
v 4 4.5 -4
v -3.5 5 -4
v -4 4.5 -4
v -3 5 -4
v -3.5 4 -4
v -3 4 -4
v -3 5 4
v -3 4 4
v -3.5 5 4
v -4 4.5 4
v -3.5 4 4
v 2 0 1
v 2 0 -1
v 1 0 1
v 1 0 -1
v 1.034074 0.741181 -1
v 1.133975 0.5 -1
v 1.034074 0.741181 1
v 1.741181 0.03407419 -1
v 1.5 0.1339746 -1
v 1.292893 0.2928932 -1
v 1 1 -1
v 1 1 1
v 1.741181 0.03407419 1
v 1.5 0.1339746 1
v 1.292893 0.2928932 1
v 1.133975 0.5 1
v 1 -2 -1
v 1.034074 -1.741181 -1
v 1 -1 -1
v 1.133975 -1.5 -1
v 1.292893 -1.292893 -1
v 1.5 -1.133975 -1
v 1.741181 -1.034074 -1
v 2 -1 -1
v 1.034074 -1.741181 1
v 1 -2 1
v 1.133975 -1.5 1
v 1.5 -1.133975 1
v 1.292893 -1.292893 1
v 1 -1 1
v 2 -1 1
v 1.741181 -1.034074 1
v -1.292893 0.2928932 -1
v -1.5 0.1339746 -1
v -1 0 -1
v -1.133975 0.5 -1
v -1.034074 0.741181 -1
v -1 1 -1
v -2 0 -1
v -1.741181 0.03407419 -1
v -1 0 1
v -2 0 1
v -1 1 1
v -1.741181 0.03407419 1
v -1.133975 0.5 1
v -1.034074 0.741181 1
v -1.292893 0.2928932 1
v -1.5 0.1339746 1
v -1 -2 1
v -1.034074 -1.741181 1
v -1 -1 1
v -1.133975 -1.5 1
v -1.292893 -1.292893 1
v -1.5 -1.133975 1
v -1.741181 -1.034074 1
v -2 -1 1
v -1.133975 -1.5 -1
v -1.292893 -1.292893 -1
v -1 -2 -1
v -1 -1 -1
v -1.034074 -1.741181 -1
v -1.5 -1.133975 -1
v -1.741181 -1.034074 -1
v -2 -1 -1
v 1 4 -2
v 1 -4 -2
v 1 4 2
v 1 -4 2
v -1 4 -2
v -1 4 2
v -1 -4 2
v -1 -4 -2
v 1.5 -3 -1
v 1.5 -3 1
v 1 -3 -1
v 1 -3 1
v 1.5 -4 1
v 1.5 -4 -1
v 1 -4 1
v 1 -4 -1
v 2 -3.5 1
v 2 -3.5 -1
v -1.5 -3 -1
v -2 -3.5 -1
v -1 -3 -1
v -1.5 -4 -1
v -1 -4 -1
v -1 -3 1
v -1 -4 1
v -1.5 -3 1
v -2 -3.5 1
v -1.5 -4 1
v 0 -4 -1
v 0 -4 1
v 0 -5 -1
v 0 -5 1
v 0.5 -5 -1
v 0.5 -5 1
v -0.5 -5 -1
v -0.5 -5 1

vn 0 1 0
vn 0 -1 0
vn -1 0 0
vn 0.7071068 -0.7071068 0
vn 0.7071068 0.7071068 0
vn 0 0 -1
vn 0 0 1
vn 1 0 0
vn -0.7071068 0.7071068 0
vn -0.7071068 -0.7071068 0
vn 0.9659259 0.2588191 0
vn 0.8660254 0.5 0
vn 0.1305262 0.9914449 0
vn 0.2588191 0.9659259 0
vn 0.5 0.8660254 0
vn 0.9914449 0.1305262 0
vn 0.9659259 -0.2588191 0
vn 0.9914449 -0.1305262 0
vn 0.8660254 -0.5 0
vn 0.5 -0.8660254 0
vn 0.1305262 -0.9914449 0
vn 0.2588191 -0.9659259 0
vn -0.2588191 0.9659259 0
vn -0.1305262 0.9914449 0
vn -0.8660254 0.5 0
vn -0.9659259 0.2588191 0
vn -0.5 0.8660254 0
vn -0.9914449 0.1305262 0
vn -0.8660254 -0.5 0
vn -0.5 -0.8660254 0
vn -0.2588191 -0.9659259 0
vn -0.9914449 -0.1305262 0
vn -0.9659259 -0.2588191 0
vn -0.1305262 -0.9914449 0
vn 0.8944272 -0.4472136 0
vn -0.8944272 -0.4472136 0

vt 0 0
vt NaN 0
vt NaN 0
vt -2.547296E-11 19.68504
vt 19.68504 2.440714E-12
vt -19.68504 19.68504
vt -19.68504 -19.68504
vt 1.065814E-13 -19.68504
vt 0 NaN
vt 0 NaN
vt -6.387779E-12 19.68504
vt 19.68504 19.68504
vt -19.68504 2.4869E-14
vt 0 NaN
vt 0 NaN
vt 0 NaN
vt 0 NaN
vt 2.285105E-11 -19.68504
vt 19.68504 -19.68504
vt NaN 0
vt NaN 0
vt NaN 0
vt NaN 0
vt NaN 0
vt NaN 0
vt NaN 0
vt NaN 0
vt 9.495314 -18.34354
vt -18.34354 9.495314
vt -14.41045 2.273026E-11
vt -8.15381 -8.153811
vt 2.933274E-07 -14.41045
vt NaN 0
vt 9.495314 18.34354
vt -18.34354 -9.495314
vt -14.41045 -1.235634E-11
vt -8.153811 8.153811
vt 1.54472E-11 14.41045
vt 0 NaN
vt 0 NaN
vt 0 NaN
vt 0 NaN
vt 0 NaN
vt 0 NaN
vt 0 NaN
vt 0 NaN
vt 0 NaN
vt 0 NaN
vt 0 NaN
vt 0 NaN
vt 0 NaN
vt 0 NaN
vt 0 NaN
vt 0 NaN
vt -9.495314 -18.34354
vt -1.042011E-11 -14.41045
vt 8.153811 -8.153811
vt 14.41045 9.762857E-12
vt 18.34354 9.495314
vt 18.34354 -9.495314
vt 14.41045 -1.267253E-11
vt 8.153811 8.153811
vt -1.120526E-11 14.41045
vt -9.495314 18.34354
vt 0 NaN
vt 0 NaN
vt 0 NaN
vt 0 NaN
vt 0 NaN
vt 0 NaN
vt 0 NaN
vt 0 NaN
vt 0 NaN
vt 0 NaN
vt 0 NaN
vt 0 NaN
vt NaN 0
vt NaN 0
vt 0 NaN
vt 0 NaN
vt 0 NaN
vt 0 NaN
vt 0 NaN
vt 0 NaN
vt 19.68504 19.68504
vt -6.554757E-12 -19.68504
vt -19.68504 19.68504
vt 0 NaN
vt 0 NaN
vt 0 NaN
vt 0 NaN
vt -19.68504 -19.68504
vt 0 NaN
vt 0 NaN
vt 0 NaN
vt 0 NaN
vt 0 NaN
vt 0 NaN
vt 19.68504 -19.68504
vt -4.570921E-11 -19.68504
vt 0 NaN
vt 0 NaN

usemtl color4

f 3/1/1 2/2/1 1/1/1
f 2/2/1 3/1/1 4/1/1
f 7/1/2 6/3/2 5/1/2
f 6/3/2 7/1/2 8/1/2
f 7/6/3 3/5/3 8/4/3
f 3/6/3 7/5/3 4/4/3
f 5/6/4 10/5/4 9/4/4
f 10/6/4 5/5/4 6/4/4
f 1/6/5 9/5/5 10/4/5
f 9/6/5 1/5/5 2/4/5
f 3/6/6 6/5/6 8/4/6
f 6/6/6 3/5/6 10/4/6
f 10/6/6 3/5/6 1/4/6
f 5/8/7 4/6/7 7/7/7
f 4/6/7 5/8/7 9/5/7
f 4/6/7 9/5/7 2/4/7
f 13/1/6 12/1/6 11/9/6
f 12/1/6 15/1/6 14/10/6
f 15/1/6 12/1/6 13/1/6
f 16/13/8 15/12/8 13/11/8
f 15/13/8 16/12/8 17/11/8
f 12/13/9 18/12/9 11/11/9
f 18/13/9 12/12/9 19/11/9
f 19/13/10 14/12/10 20/11/10
f 14/13/10 19/12/10 12/11/10
f 20/1/2 15/1/2 17/14/2
f 15/1/2 20/1/2 14/15/2
f 11/1/1 16/1/1 13/16/1
f 16/1/1 11/1/1 18/17/1
f 17/19/7 19/13/7 20/18/7
f 19/13/7 17/19/7 16/12/7
f 19/13/7 16/12/7 18/11/7

usemtl color12

f 23/1/2 22/20/2 21/1/2
f 22/20/2 23/1/2 24/1/2
f 27/1/11 26/21/12 25/1/11
f 24/1/6 28/22/6 22/1/6
f 28/22/6 24/1/6 29/1/6
f 29/1/6 24/1/6 30/1/6
f 30/1/6 24/1/6 26/1/6
f 26/1/6 24/1/6 25/1/6
f 25/1/6 24/1/6 31/1/6
f 23/1/3 31/23/3 24/1/3
f 31/23/3 23/1/3 32/1/3
f 28/1/14 21/24/13 22/1/13
f 29/1/15 33/25/14 28/1/14
f 30/1/5 34/26/15 29/1/15
f 30/1/5 36/27/12 35/1/5
f 34/26/15 30/1/5 35/1/5
f 33/25/14 29/1/15 34/26/15
f 21/24/13 28/1/14 33/25/14
f 32/28/16 25/7/11 31/19/16
f 25/28/11 32/7/16 27/19/11
f 26/21/12 27/1/11 36/27/12
f 36/27/12 30/1/5 26/21/12
f 23/7/7 27/29/7 32/6/7
f 27/29/7 23/7/7 36/30/7
f 36/30/7 23/7/7 35/31/7
f 35/31/7 23/7/7 34/32/7
f 34/32/7 23/7/7 33/28/7
f 33/28/7 23/7/7 21/19/7
f 39/1/6 38/33/6 37/1/6
f 38/33/6 39/1/6 40/1/6
f 40/1/6 39/1/6 41/1/6
f 41/1/6 39/1/6 42/1/6
f 42/1/6 39/1/6 43/1/6
f 43/1/6 39/1/6 44/1/6
f 45/6/17 37/34/18 38/12/17
f 37/6/18 45/34/17 46/12/18
f 47/6/19 38/34/17 40/12/19
f 38/6/17 47/34/19 45/12/17
f 49/6/4 42/34/20 48/12/20
f 42/6/20 49/34/4 41/12/4
f 49/6/4 40/34/19 41/12/4
f 40/6/19 49/34/4 47/12/19
f 46/6/3 39/34/3 37/12/3
f 39/6/3 46/34/3 50/12/3
f 39/6/1 51/34/1 44/12/1
f 51/6/1 39/34/1 50/12/1
f 52/6/22 44/34/21 51/12/21
f 44/6/21 52/34/22 43/12/22
f 48/6/20 43/34/22 52/12/22
f 43/6/22 48/34/20 42/12/20
f 45/35/7 50/6/7 46/7/7
f 50/6/7 45/35/7 47/36/7
f 50/6/7 47/36/7 49/37/7
f 50/6/7 49/37/7 48/38/7
f 50/6/7 48/38/7 52/34/7
f 50/6/7 52/34/7 51/12/7
f 55/1/6 54/1/6 53/39/6
f 55/1/6 53/39/6 56/40/6
f 55/1/6 56/40/6 57/41/6
f 55/1/6 57/41/6 58/42/6
f 60/1/6 55/1/6 59/43/6
f 55/1/6 60/1/6 54/1/6
f 62/1/2 55/1/2 61/44/2
f 55/1/2 62/1/2 59/45/2
f 63/1/8 55/1/8 58/46/8
f 55/1/8 63/1/8 61/47/8
f 59/1/24 64/1/23 60/48/23
f 64/1/23 59/1/24 62/49/24
f 65/1/25 57/1/26 56/50/25
f 57/1/26 65/1/25 66/51/26
f 67/1/9 56/50/25 53/52/9
f 56/50/25 67/1/9 65/1/25
f 54/1/27 67/1/9 53/52/9
f 67/1/9 54/1/27 68/53/27
f 60/48/23 68/53/27 54/1/27
f 68/53/27 60/48/23 64/1/23
f 66/51/26 58/1/28 57/1/26
f 58/1/28 66/51/26 63/54/28
f 61/19/7 64/55/7 62/7/7
f 64/55/7 61/19/7 68/56/7
f 68/56/7 61/19/7 67/57/7
f 67/57/7 61/19/7 65/58/7
f 65/58/7 61/19/7 66/59/7
f 66/59/7 61/19/7 63/12/7
f 71/12/7 70/60/7 69/19/7
f 70/60/7 71/12/7 72/61/7
f 72/61/7 71/12/7 73/62/7
f 73/62/7 71/12/7 74/63/7
f 74/63/7 71/12/7 75/64/7
f 75/64/7 71/12/7 76/6/7
f 72/64/29 78/12/10 77/6/29
f 78/64/10 72/12/29 73/6/10
f 81/64/6 80/12/6 79/6/6
f 80/64/6 81/12/6 77/6/6
f 80/64/6 77/12/6 78/6/6
f 80/64/6 78/12/6 82/6/6
f 80/64/6 82/12/6 83/6/6
f 80/64/6 83/12/6 84/6/6
f 71/64/8 79/12/8 80/6/8
f 79/64/8 71/12/8 69/6/8
f 84/64/1 71/12/1 80/6/1
f 71/64/1 84/12/1 76/6/1
f 74/64/30 78/12/10 73/6/10
f 78/64/10 74/12/30 82/6/30
f 75/64/31 82/12/30 74/6/30
f 82/64/30 75/12/31 83/6/31
f 69/64/32 81/12/33 79/6/32
f 81/64/33 69/12/32 70/6/33
f 70/64/33 77/12/29 81/6/33
f 77/64/29 70/12/33 72/6/29
f 76/64/34 83/12/31 75/6/31
f 83/64/31 76/12/34 84/6/34
f 87/7/8 86/12/8 85/6/8
f 86/7/8 87/12/8 88/6/8
f 89/7/1 87/12/1 85/6/1
f 87/7/1 89/12/1 90/6/1
f 91/1/2 86/1/2 88/65/2
f 86/1/2 91/1/2 92/66/2
f 91/1/3 89/1/3 92/67/3
f 89/1/3 91/1/3 90/68/3
f 89/1/6 86/1/6 92/69/6
f 86/1/6 89/1/6 85/70/6
f 87/12/7 91/7/7 88/19/7
f 91/7/7 87/12/7 90/6/7
f 21/7/8 44/12/8 22/6/8
f 44/7/8 21/12/8 51/6/8
f 24/7/1 21/12/1 22/6/1
f 21/7/1 24/12/1 23/6/1
f 50/1/2 44/1/2 51/71/2
f 44/1/2 50/1/2 39/72/2
f 50/1/3 24/1/3 39/34/3
f 24/1/3 50/1/3 23/1/3
f 24/1/6 44/1/6 39/1/6
f 44/1/6 24/1/6 22/1/6
f 21/12/7 50/7/7 51/19/7
f 50/7/7 21/12/7 23/6/7
f 61/47/8 80/12/8 55/6/8
f 80/7/8 61/47/8 71/6/8
f 59/7/1 61/12/1 55/6/1
f 61/7/1 59/12/1 62/6/1
f 76/1/2 80/1/2 71/73/2
f 80/1/2 76/1/2 84/74/2
f 76/1/3 59/1/3 84/75/3
f 59/1/3 76/1/3 62/76/3
f 59/43/6 80/1/6 84/6/6
f 80/1/6 59/43/6 55/1/6
f 61/12/7 76/7/7 71/19/7
f 76/7/7 61/12/7 62/6/7

usemtl color11

f 95/1/1 94/77/1 93/1/1
f 94/77/1 95/1/1 96/1/1
f 99/1/2 98/78/2 97/1/2
f 98/78/2 99/1/2 100/1/2
f 99/6/3 95/5/3 100/4/3
f 95/6/3 99/5/3 96/4/3
f 97/6/4 102/5/4 101/4/4
f 102/6/4 97/5/4 98/4/4
f 93/6/5 101/5/5 102/4/5
f 101/6/5 93/5/5 94/4/5
f 95/6/6 98/5/6 100/4/6
f 98/6/6 95/5/6 102/4/6
f 102/6/6 95/5/6 93/4/6
f 97/8/7 96/6/7 99/7/7
f 96/6/7 97/8/7 101/5/7
f 96/6/7 101/5/7 94/4/7
f 105/1/6 104/1/6 103/79/6
f 104/1/6 107/1/6 106/80/6
f 107/1/6 104/1/6 105/1/6
f 108/13/8 107/12/8 105/11/8
f 107/13/8 108/12/8 109/11/8
f 104/13/9 110/12/9 103/11/9
f 110/13/9 104/12/9 111/11/9
f 111/13/10 106/12/10 112/11/10
f 106/13/10 111/12/10 104/11/10
f 112/1/2 107/1/2 109/81/2
f 107/1/2 112/1/2 106/82/2
f 103/1/1 108/1/1 105/83/1
f 108/1/1 103/1/1 110/84/1
f 109/19/7 111/13/7 112/18/7
f 111/13/7 109/19/7 108/12/7
f 111/13/7 108/12/7 110/11/7

usemtl color7

f 113/87/1 99/86/1 100/85/1
f 99/87/1 113/86/1 114/85/1
f 116/87/3 113/86/3 115/85/3
f 113/87/3 116/86/3 114/85/3
f 113/87/6 117/86/6 115/85/6
f 117/87/6 113/86/6 100/85/6
f 116/1/2 117/1/2 118/88/2
f 117/1/2 116/1/2 115/89/2
f 99/1/35 117/1/35 100/90/35
f 117/1/35 99/1/35 118/91/35
f 118/86/7 114/87/7 116/92/7
f 114/87/7 118/86/7 99/85/7
f 119/1/6 113/1/6 115/85/6
f 113/1/6 119/1/6 107/1/6
f 120/1/2 115/89/2 116/1/2
f 115/89/2 120/1/2 119/93/2
f 107/1/1 114/1/1 113/87/1
f 114/1/1 107/1/1 109/94/1
f 114/1/8 115/1/8 113/95/8
f 115/1/8 114/1/8 116/96/8
f 120/1/36 107/1/36 119/97/36
f 107/1/36 120/1/36 109/98/36
f 114/85/7 120/100/7 116/99/7
f 120/100/7 114/85/7 109/87/7

usemtl color0

f 4/7/8 8/12/8 3/6/8
f 8/7/8 4/12/8 7/6/8
f 13/16/1 4/12/1 3/6/1
f 4/7/1 13/16/1 16/6/1
f 17/14/2 8/1/2 7/1/2
f 8/1/2 17/14/2 15/1/2
f 17/1/3 13/1/3 15/101/3
f 13/1/3 17/1/3 16/102/3
f 13/1/6 8/1/6 15/1/6
f 8/1/6 13/1/6 3/6/6
f 4/12/7 17/7/7 7/19/7
f 17/7/7 4/12/7 16/6/7

